<svg xmlns="http://www.w3.org/2000/svg" xmlns:xlink="http://www.w3.org/1999/xlink" width="206" zoomAndPan="magnify" viewBox="0 0 154.5 79.499998" height="106" preserveAspectRatio="xMidYMid meet" version="1.0"><defs><g/><clipPath id="87d87c5d44"><path d="M 0.234375 0 L 87 0 L 87 47 L 0.234375 47 Z M 0.234375 0 " clip-rule="nonzero"/></clipPath><clipPath id="1707a9c065"><path d="M 71 6 L 98 6 L 98 35 L 71 35 Z M 71 6 " clip-rule="nonzero"/></clipPath><clipPath id="afeef9030e"><path d="M 61.710938 28.5625 L 73.851562 2.851562 L 99.558594 14.992188 L 87.417969 40.703125 Z M 61.710938 28.5625 " clip-rule="nonzero"/></clipPath><clipPath id="06b8ed0ada"><path d="M 61.710938 28.5625 L 73.851562 2.851562 L 99.558594 14.992188 L 87.417969 40.703125 Z M 61.710938 28.5625 " clip-rule="nonzero"/></clipPath><clipPath id="2d07990672"><path d="M 89 19 L 98 19 L 98 36 L 89 36 Z M 89 19 " clip-rule="nonzero"/></clipPath><clipPath id="f579836f7f"><path d="M 77.097656 21.875 L 84.746094 11.136719 L 104.210938 25 L 96.5625 35.738281 Z M 77.097656 21.875 " clip-rule="nonzero"/></clipPath><clipPath id="40a9814eba"><path d="M 104.199219 25.085938 L 96.550781 35.824219 L 77.082031 21.960938 L 84.730469 11.222656 Z M 104.199219 25.085938 " clip-rule="nonzero"/></clipPath><clipPath id="19d51ec901"><path d="M 81 12 L 93 12 L 93 24 L 81 24 Z M 81 12 " clip-rule="nonzero"/></clipPath><clipPath id="45394009ed"><path d="M 77.097656 21.875 L 84.746094 11.136719 L 104.210938 25 L 96.5625 35.738281 Z M 77.097656 21.875 " clip-rule="nonzero"/></clipPath><clipPath id="79973d4710"><path d="M 104.199219 25.085938 L 96.550781 35.824219 L 77.082031 21.960938 L 84.730469 11.222656 Z M 104.199219 25.085938 " clip-rule="nonzero"/></clipPath><clipPath id="5720a8618e"><path d="M 81 12 L 92 12 L 92 23 L 81 23 Z M 81 12 " clip-rule="nonzero"/></clipPath><clipPath id="cd2ab6cf93"><path d="M 77.097656 21.875 L 84.746094 11.136719 L 104.210938 25 L 96.5625 35.738281 Z M 77.097656 21.875 " clip-rule="nonzero"/></clipPath><clipPath id="c360dcacda"><path d="M 104.199219 25.085938 L 96.550781 35.824219 L 77.082031 21.960938 L 84.730469 11.222656 Z M 104.199219 25.085938 " clip-rule="nonzero"/></clipPath><clipPath id="ccc9d3d83a"><path d="M 87 17 L 90 17 L 90 20 L 87 20 Z M 87 17 " clip-rule="nonzero"/></clipPath><clipPath id="2822b5a870"><path d="M 77.097656 21.875 L 84.746094 11.136719 L 104.210938 25 L 96.5625 35.738281 Z M 77.097656 21.875 " clip-rule="nonzero"/></clipPath><clipPath id="a5ed4f37c2"><path d="M 104.199219 25.085938 L 96.550781 35.824219 L 77.082031 21.960938 L 84.730469 11.222656 Z M 104.199219 25.085938 " clip-rule="nonzero"/></clipPath><clipPath id="4b701c1329"><path d="M 0.234375 18 L 136 18 L 136 68 L 0.234375 68 Z M 0.234375 18 " clip-rule="nonzero"/></clipPath><clipPath id="9801cbde13"><path d="M 80 8 L 87 8 L 87 14 L 80 14 Z M 80 8 " clip-rule="nonzero"/></clipPath><clipPath id="7874fc0d57"><path d="M 80.75 11.746094 L 82.335938 8.394531 L 86.0625 10.152344 L 84.476562 13.507812 Z M 80.75 11.746094 " clip-rule="nonzero"/></clipPath><clipPath id="2d877381a9"><path d="M 69.253906 22.425781 L 76.992188 6.03125 L 93.386719 13.773438 L 85.648438 30.167969 Z M 69.253906 22.425781 " clip-rule="nonzero"/></clipPath><clipPath id="a43e4a07ac"><path d="M 83 27 L 89 27 L 89 34 L 83 34 Z M 83 27 " clip-rule="nonzero"/></clipPath><clipPath id="cff5951db9"><path d="M 83.410156 31.578125 L 85.207031 27.871094 L 88.914062 29.664062 L 87.121094 33.375 Z M 83.410156 31.578125 " clip-rule="nonzero"/></clipPath><clipPath id="f297de830f"><path d="M 70.847656 43.015625 L 79.46875 25.214844 L 97.269531 33.835938 L 88.652344 51.636719 Z M 70.847656 43.015625 " clip-rule="nonzero"/></clipPath></defs><g clip-path="url(#87d87c5d44)"><path stroke-linecap="butt" transform="matrix(0.611818, -0.0017231, 0.0017231, 0.611818, 2.349901, 9.953013)" fill="none" stroke-linejoin="miter" d="M 20.993564 25.610698 C 20.994932 27.392021 20.684065 28.955386 20.067385 30.288042 C 19.450705 31.620698 18.604809 32.729246 17.529678 33.620069 C 16.454565 34.504508 15.201312 35.164983 13.757133 35.607842 C 12.319338 36.050718 10.773617 36.276212 9.120004 36.271555 C 8.481526 36.276142 7.785838 36.191182 7.020171 36.01664 C 6.26087 35.8485 5.488926 35.635633 4.704321 35.384421 C 3.926101 35.133228 3.173491 34.856568 2.45284 34.567229 C 1.725822 34.271487 1.088135 33.995151 0.527027 33.7318 L 1.386066 25.689554 C 2.495135 26.350297 3.719559 26.858133 5.065757 27.200312 C 6.418323 27.548892 7.739468 27.718614 9.041945 27.715898 C 9.290945 27.716599 9.591039 27.711059 9.942265 27.68651 C 10.293472 27.668345 10.625633 27.611819 10.945151 27.510564 C 11.264651 27.415694 11.539602 27.269621 11.757236 27.07231 C 11.981237 26.881401 12.090566 26.600784 12.091591 26.236862 C 12.092293 25.987862 12.009886 25.776937 11.857159 25.597736 C 11.698029 25.424902 11.50052 25.277499 11.251826 25.168259 C 11.003133 25.05902 10.722444 24.975229 10.40976 24.916886 C 10.097076 24.858544 9.790741 24.812989 9.490737 24.786605 C 9.190732 24.760221 8.909827 24.753046 8.654443 24.752326 C 8.392674 24.751589 8.181983 24.750996 8.028752 24.750564 C 6.905062 24.7474 5.890449 24.553002 4.972163 24.160952 C 4.053859 23.775287 3.263696 23.230366 2.608042 22.532592 C 1.952388 21.834818 1.437554 21.009747 1.076329 20.051032 C 0.708701 19.098683 0.526479 18.057471 0.529625 16.940165 C 0.527574 15.401457 0.837919 14.023246 1.454276 12.805513 C 2.070632 11.587779 2.903544 10.555811 3.933874 9.703169 C 4.97059 8.850545 6.159978 8.196275 7.50204 7.74036 C 8.844101 7.284445 10.230226 7.052116 11.660377 7.056144 C 12.298856 7.051557 12.956398 7.078948 13.63304 7.125546 C 14.3097 7.16576 14.986235 7.250666 15.656294 7.367477 C 16.326354 7.484288 16.97717 7.632968 17.615127 7.813535 C 18.253066 8.000486 18.858974 8.225656 19.432815 8.501812 L 18.689022 16.429459 C 17.808774 16.133285 16.877323 15.881661 15.907439 15.67462 C 14.937536 15.473964 13.992885 15.375534 13.067117 15.372927 C 12.894733 15.372441 12.677638 15.378214 12.409467 15.383844 C 12.14768 15.389491 11.866703 15.407854 11.572904 15.445334 C 11.279122 15.47643 10.985286 15.52668 10.68503 15.589681 C 10.384774 15.652682 10.116369 15.741311 9.879815 15.855568 C 9.649663 15.963459 9.457712 16.109766 9.316729 16.294524 C 9.175764 16.472897 9.104922 16.689776 9.123375 16.938829 C 9.135335 17.226173 9.243226 17.456324 9.440663 17.629266 C 9.644467 17.80861 9.905858 17.943424 10.224818 18.040092 C 10.543779 18.13676 10.894734 18.20798 11.277703 18.247366 C 11.660671 18.286753 12.043693 18.306986 12.420367 18.314431 C 12.797041 18.321877 13.148194 18.322866 13.473827 18.317398 C 13.799478 18.305546 14.067595 18.31907 14.278215 18.345202 C 15.318726 18.411979 16.256651 18.631699 17.091973 19.010746 C 17.920929 19.383391 18.6282 19.88977 19.207454 20.510713 C 19.786691 21.138041 20.231528 21.879914 20.535543 22.749083 C 20.845961 23.611886 20.996495 24.570008 20.993564 25.610698 Z M 46.369379 22.208913 C 46.366034 23.39645 46.228739 24.538916 45.957493 25.636313 C 45.686228 26.740094 45.28747 27.773285 44.773987 28.735922 C 44.260503 29.698559 43.638715 30.57789 42.90222 31.380282 C 42.165725 32.182675 41.340169 32.869892 40.419167 33.441917 C 39.504551 34.01396 38.500909 34.45806 37.420994 34.780636 C 36.341097 35.096827 35.197785 35.259608 33.98471 35.256192 C 32.809925 35.259268 31.693033 35.109275 30.634034 34.806214 C 29.575016 34.509537 28.580187 34.091733 27.655948 33.546434 C 26.731691 33.00752 25.897124 32.360319 25.14588 31.59843 C 24.394636 30.83654 23.758568 29.985589 23.231253 29.058329 C 22.703956 28.124685 22.291762 27.127518 22.001073 26.060462 C 21.710384 24.993405 21.5603 23.875668 21.563555 22.720055 C 21.560371 21.583577 21.697576 20.473034 21.975171 19.388424 C 22.246381 18.303797 22.638737 17.276972 23.15222 16.314335 C 23.665704 15.351699 24.28751 14.465983 25.017638 13.657188 C 25.747767 12.848393 26.566956 12.154773 27.468858 11.56354 C 28.377126 10.97871 29.355265 10.521769 30.409642 10.199121 C 31.464019 9.876474 32.575407 9.713603 33.750192 9.710527 C 35.640053 9.709464 37.363087 10.001627 38.91291 10.586995 C 40.469099 11.178766 41.801144 12.012523 42.902623 13.101016 C 43.997719 14.189492 44.855954 15.500763 45.45814 17.047546 C 46.066728 18.587961 46.368335 20.312668 46.369379 22.208913 Z M 37.697576 22.720801 C 37.692773 22.158938 37.611302 21.616013 37.453179 21.085641 C 37.288654 20.561636 37.053736 20.094895 36.735675 19.678996 C 36.42398 19.269501 36.035454 18.936404 35.576464 18.68611 C 35.111107 18.429413 34.581527 18.306613 33.981374 18.304923 C 33.374836 18.303215 32.825437 18.416592 32.345962 18.638704 C 31.860103 18.860799 31.450643 19.159724 31.104795 19.54183 C 30.75893 19.930319 30.495902 20.376504 30.315677 20.893154 C 30.129067 21.409785 30.038154 21.952225 30.036554 22.520455 C 30.041392 23.069549 30.116461 23.618841 30.274548 24.161981 C 30.432616 24.711507 30.661078 25.203769 30.979049 25.65159 C 31.290654 26.093009 31.679108 26.451644 32.138044 26.721092 C 32.603347 26.996942 33.139276 27.132529 33.752198 27.134256 C 34.36512 27.135982 34.914556 27.009836 35.400469 26.768588 C 35.886364 26.533724 36.302299 26.202893 36.641833 25.795232 C 36.981368 25.38757 37.238083 24.915829 37.424747 24.380043 C 37.605026 23.84424 37.695975 23.289031 37.697576 22.720801 Z M 64.902933 24.866049 L 64.080421 33.540479 L 47.636307 34.828559 C 47.712956 30.282901 47.802302 25.762817 47.897942 21.274674 C 47.999986 16.780164 48.121255 12.26017 48.261731 7.721076 L 58.419727 7.717761 C 58.117997 10.570852 57.829055 13.417594 57.559267 16.264391 C 57.283094 19.111169 57.089867 21.977335 56.973183 24.869255 C 57.586051 24.890135 58.192552 24.904612 58.78632 24.906285 C 59.386473 24.907975 59.993029 24.903299 60.605951 24.905025 C 61.333796 24.907075 62.048889 24.902704 62.75125 24.885528 C 63.459977 24.874755 64.17507 24.870384 64.902933 24.866049 Z M 90.446841 34.323433 L 80.764185 35.573094 L 79.589073 31.157988 L 75.138968 31.158224 L 74.162468 35.567271 L 64.198762 34.59428 L 71.971922 8.579549 L 82.833771 8.029137 Z M 78.884444 25.179966 L 77.403194 18.382522 L 75.953892 25.178098 Z M 113.748066 17.169643 C 113.751591 18.184813 113.659599 19.110329 113.484896 19.933457 C 113.310174 20.76297 113.033496 21.521965 112.654862 22.210441 C 112.276229 22.898918 111.789201 23.536012 111.19376 24.128108 C 110.591953 24.713801 109.86891 25.273614 109.024632 25.807548 L 113.674877 34.088772 L 104.884752 35.807027 L 101.875477 27.485731 L 99.455478 27.561916 L 99.100588 35.688582 L 90.704762 35.690475 C 90.770585 32.721796 90.829987 29.765868 90.889353 26.82271 C 90.948719 23.879551 91.014506 20.923641 91.093098 17.954998 C 91.122862 16.454688 91.146187 14.973513 91.169495 13.498724 C 91.199169 12.030337 91.248051 10.54285 91.328874 9.049068 C 92.236459 8.706853 93.137479 8.428465 94.025568 8.207504 C 94.907273 7.986524 95.795237 7.810254 96.689423 7.691464 C 97.583627 7.56629 98.484108 7.479441 99.403617 7.437338 C 100.323144 7.38885 101.261753 7.365955 102.225828 7.36867 C 103.713459 7.366475 105.149419 7.574828 106.533745 7.98096 C 107.918054 8.393477 109.148556 9.009869 110.212484 9.830102 C 111.282795 10.650352 112.141858 11.667931 112.783251 12.895591 C 113.424661 14.116867 113.752651 15.541569 113.748066 17.169643 Z M 104.999324 17.796238 C 105.00087 17.247162 104.925657 16.748947 104.773703 16.295209 C 104.628152 15.835104 104.405788 15.445014 104.113031 15.112187 C 103.820274 14.77936 103.450705 14.516549 103.017073 14.330172 C 102.583441 14.143796 102.072943 14.046589 101.485559 14.044934 C 101.22379 14.044197 100.968352 14.062632 100.725647 14.093871 C 100.476558 14.125093 100.233799 14.175487 99.997371 14.245052 L 99.689601 21.509923 L 100.155695 21.504851 C 100.71754 21.506433 101.285968 21.437803 101.86738 21.292593 C 102.442408 21.147365 102.966575 20.925379 103.427112 20.626597 C 103.887648 20.327815 104.265419 19.9458 104.560441 19.474166 C 104.855446 19.008917 104.997489 18.447468 104.999324 17.796238 Z M 104.999324 17.796238 " stroke="#806c00" stroke-width="4.25" stroke-opacity="1" stroke-miterlimit="4"/></g><g fill="#ffd700" fill-opacity="1"><g transform="translate(2.411932, 31.978478)"><g><path d="M 12.828125 -6.390625 C 12.828125 -5.296875 12.640625 -4.335938 12.265625 -3.515625 C 11.890625 -2.703125 11.375 -2.023438 10.71875 -1.484375 C 10.0625 -0.941406 9.289062 -0.53125 8.40625 -0.25 C 7.53125 0.0195312 6.585938 0.15625 5.578125 0.15625 C 5.191406 0.15625 4.765625 0.101562 4.296875 0 C 3.828125 -0.101562 3.351562 -0.226562 2.875 -0.375 C 2.394531 -0.53125 1.9375 -0.695312 1.5 -0.875 C 1.0625 -1.050781 0.671875 -1.222656 0.328125 -1.390625 L 0.828125 -6.3125 C 1.503906 -5.90625 2.253906 -5.597656 3.078125 -5.390625 C 3.910156 -5.179688 4.722656 -5.078125 5.515625 -5.078125 C 5.671875 -5.078125 5.851562 -5.082031 6.0625 -5.09375 C 6.28125 -5.113281 6.484375 -5.148438 6.671875 -5.203125 C 6.867188 -5.265625 7.035156 -5.351562 7.171875 -5.46875 C 7.304688 -5.59375 7.375 -5.765625 7.375 -5.984375 C 7.375 -6.140625 7.328125 -6.269531 7.234375 -6.375 C 7.140625 -6.476562 7.015625 -6.5625 6.859375 -6.625 C 6.710938 -6.695312 6.539062 -6.75 6.34375 -6.78125 C 6.15625 -6.820312 5.96875 -6.847656 5.78125 -6.859375 C 5.601562 -6.878906 5.429688 -6.890625 5.265625 -6.890625 C 5.109375 -6.890625 4.984375 -6.890625 4.890625 -6.890625 C 4.210938 -6.890625 3.59375 -7.003906 3.03125 -7.234375 C 2.46875 -7.472656 1.976562 -7.804688 1.5625 -8.234375 C 1.15625 -8.660156 0.84375 -9.164062 0.625 -9.75 C 0.40625 -10.34375 0.296875 -10.976562 0.296875 -11.65625 C 0.296875 -12.601562 0.476562 -13.445312 0.84375 -14.1875 C 1.21875 -14.9375 1.722656 -15.570312 2.359375 -16.09375 C 2.992188 -16.625 3.71875 -17.023438 4.53125 -17.296875 C 5.351562 -17.578125 6.203125 -17.71875 7.078125 -17.71875 C 7.472656 -17.71875 7.875 -17.707031 8.28125 -17.6875 C 8.695312 -17.664062 9.109375 -17.617188 9.515625 -17.546875 C 9.929688 -17.472656 10.332031 -17.378906 10.71875 -17.265625 C 11.113281 -17.160156 11.488281 -17.023438 11.84375 -16.859375 L 11.40625 -12 C 10.863281 -12.1875 10.296875 -12.335938 9.703125 -12.453125 C 9.109375 -12.578125 8.53125 -12.632812 7.96875 -12.625 C 7.863281 -12.625 7.726562 -12.625 7.5625 -12.625 C 7.394531 -12.625 7.222656 -12.613281 7.046875 -12.59375 C 6.867188 -12.570312 6.6875 -12.539062 6.5 -12.5 C 6.320312 -12.457031 6.160156 -12.398438 6.015625 -12.328125 C 5.867188 -12.265625 5.75 -12.175781 5.65625 -12.0625 C 5.570312 -11.957031 5.535156 -11.828125 5.546875 -11.671875 C 5.554688 -11.492188 5.625 -11.351562 5.75 -11.25 C 5.875 -11.144531 6.03125 -11.0625 6.21875 -11 C 6.414062 -10.9375 6.628906 -10.894531 6.859375 -10.875 C 7.097656 -10.851562 7.332031 -10.835938 7.5625 -10.828125 C 7.789062 -10.828125 8.003906 -10.832031 8.203125 -10.84375 C 8.410156 -10.851562 8.578125 -10.847656 8.703125 -10.828125 C 9.335938 -10.785156 9.910156 -10.648438 10.421875 -10.421875 C 10.929688 -10.191406 11.363281 -9.882812 11.71875 -9.5 C 12.070312 -9.125 12.34375 -8.671875 12.53125 -8.140625 C 12.726562 -7.609375 12.828125 -7.023438 12.828125 -6.390625 Z M 12.828125 -6.390625 "/></g></g><g transform="translate(15.401126, 31.941896)"><g><path d="M 15.34375 -8.484375 C 15.351562 -7.753906 15.273438 -7.050781 15.109375 -6.375 C 14.941406 -5.707031 14.703125 -5.078125 14.390625 -4.484375 C 14.078125 -3.898438 13.695312 -3.359375 13.25 -2.859375 C 12.800781 -2.367188 12.296875 -1.945312 11.734375 -1.59375 C 11.171875 -1.25 10.554688 -0.976562 9.890625 -0.78125 C 9.234375 -0.582031 8.535156 -0.476562 7.796875 -0.46875 C 7.078125 -0.46875 6.394531 -0.554688 5.75 -0.734375 C 5.101562 -0.921875 4.492188 -1.179688 3.921875 -1.515625 C 3.359375 -1.847656 2.84375 -2.242188 2.375 -2.703125 C 1.914062 -3.160156 1.523438 -3.675781 1.203125 -4.25 C 0.878906 -4.820312 0.628906 -5.429688 0.453125 -6.078125 C 0.273438 -6.734375 0.1875 -7.414062 0.1875 -8.125 C 0.175781 -8.8125 0.253906 -9.488281 0.421875 -10.15625 C 0.585938 -10.820312 0.828125 -11.445312 1.140625 -12.03125 C 1.460938 -12.625 1.84375 -13.171875 2.28125 -13.671875 C 2.71875 -14.171875 3.210938 -14.597656 3.765625 -14.953125 C 4.316406 -15.316406 4.914062 -15.597656 5.5625 -15.796875 C 6.207031 -15.992188 6.890625 -16.09375 7.609375 -16.09375 C 8.765625 -16.101562 9.816406 -15.925781 10.765625 -15.5625 C 11.722656 -15.207031 12.539062 -14.703125 13.21875 -14.046875 C 13.894531 -13.390625 14.414062 -12.585938 14.78125 -11.640625 C 15.15625 -10.691406 15.34375 -9.640625 15.34375 -8.484375 Z M 10.0625 -8.15625 C 10.050781 -8.5 9.992188 -8.832031 9.890625 -9.15625 C 9.785156 -9.476562 9.640625 -9.765625 9.453125 -10.015625 C 9.265625 -10.265625 9.023438 -10.460938 8.734375 -10.609375 C 8.453125 -10.765625 8.128906 -10.84375 7.765625 -10.84375 C 7.390625 -10.84375 7.054688 -10.773438 6.765625 -10.640625 C 6.472656 -10.503906 6.21875 -10.316406 6 -10.078125 C 5.789062 -9.847656 5.628906 -9.570312 5.515625 -9.25 C 5.410156 -8.9375 5.363281 -8.609375 5.375 -8.265625 C 5.375 -7.921875 5.421875 -7.582031 5.515625 -7.25 C 5.609375 -6.914062 5.75 -6.613281 5.9375 -6.34375 C 6.132812 -6.070312 6.375 -5.851562 6.65625 -5.6875 C 6.9375 -5.519531 7.265625 -5.4375 7.640625 -5.4375 C 8.015625 -5.4375 8.347656 -5.507812 8.640625 -5.65625 C 8.941406 -5.8125 9.195312 -6.015625 9.40625 -6.265625 C 9.613281 -6.523438 9.773438 -6.816406 9.890625 -7.140625 C 10.003906 -7.460938 10.0625 -7.800781 10.0625 -8.15625 Z M 10.0625 -8.15625 "/></g></g><g transform="translate(31.007277, 31.897944)"><g><path d="M 11.09375 -6.84375 L 10.609375 -1.53125 L 0.546875 -0.71875 C 0.585938 -3.5 0.632812 -6.257812 0.6875 -9 C 0.738281 -11.75 0.804688 -14.515625 0.890625 -17.296875 L 7.09375 -17.3125 C 6.914062 -15.570312 6.742188 -13.832031 6.578125 -12.09375 C 6.421875 -10.351562 6.3125 -8.597656 6.25 -6.828125 C 6.625 -6.804688 6.992188 -6.796875 7.359375 -6.796875 C 7.722656 -6.796875 8.09375 -6.800781 8.46875 -6.8125 C 8.914062 -6.8125 9.351562 -6.816406 9.78125 -6.828125 C 10.207031 -6.835938 10.644531 -6.84375 11.09375 -6.84375 Z M 11.09375 -6.84375 "/></g></g><g transform="translate(42.072588, 31.86678)"><g><path d="M 15.671875 -1.078125 L 9.75 -0.296875 L 9.015625 -3 L 6.296875 -2.984375 L 5.71875 -0.28125 L -0.375 -0.859375 L 4.328125 -16.796875 L 10.96875 -17.140625 Z M 8.59375 -6.65625 L 7.65625 -10.796875 L 6.796875 -6.640625 Z M 8.59375 -6.65625 "/></g></g><g transform="translate(57.39195, 31.823635)"><g><path d="M 14.578125 -11.5625 C 14.578125 -10.9375 14.523438 -10.367188 14.421875 -9.859375 C 14.316406 -9.359375 14.148438 -8.894531 13.921875 -8.46875 C 13.691406 -8.039062 13.394531 -7.644531 13.03125 -7.28125 C 12.664062 -6.925781 12.222656 -6.585938 11.703125 -6.265625 L 14.5625 -1.21875 L 9.1875 -0.15625 L 7.328125 -5.21875 L 5.84375 -5.171875 L 5.65625 -0.203125 L 0.515625 -0.1875 C 0.546875 -2.007812 0.578125 -3.816406 0.609375 -5.609375 C 0.648438 -7.410156 0.6875 -9.222656 0.71875 -11.046875 C 0.738281 -11.953125 0.753906 -12.851562 0.765625 -13.75 C 0.773438 -14.65625 0.800781 -15.566406 0.84375 -16.484375 C 1.40625 -16.691406 1.957031 -16.863281 2.5 -17 C 3.039062 -17.144531 3.582031 -17.253906 4.125 -17.328125 C 4.675781 -17.410156 5.226562 -17.460938 5.78125 -17.484375 C 6.34375 -17.515625 6.921875 -17.53125 7.515625 -17.53125 C 8.421875 -17.539062 9.296875 -17.421875 10.140625 -17.171875 C 10.992188 -16.921875 11.742188 -16.539062 12.390625 -16.03125 C 13.046875 -15.53125 13.570312 -14.910156 13.96875 -14.171875 C 14.375 -13.429688 14.578125 -12.5625 14.578125 -11.5625 Z M 9.234375 -11.171875 C 9.234375 -11.503906 9.1875 -11.804688 9.09375 -12.078125 C 9 -12.359375 8.863281 -12.597656 8.6875 -12.796875 C 8.507812 -13.003906 8.285156 -13.160156 8.015625 -13.265625 C 7.742188 -13.378906 7.429688 -13.4375 7.078125 -13.4375 C 6.921875 -13.4375 6.765625 -13.425781 6.609375 -13.40625 C 6.460938 -13.394531 6.316406 -13.367188 6.171875 -13.328125 L 5.984375 -8.875 L 6.265625 -8.875 C 6.609375 -8.875 6.957031 -8.914062 7.3125 -9 C 7.664062 -9.09375 7.984375 -9.234375 8.265625 -9.421875 C 8.546875 -9.609375 8.773438 -9.84375 8.953125 -10.125 C 9.140625 -10.414062 9.234375 -10.765625 9.234375 -11.171875 Z M 9.234375 -11.171875 "/></g></g></g><g fill="#ffd700" fill-opacity="1"><g transform="translate(72.226159, 31.781857)"><g/></g></g><g clip-path="url(#1707a9c065)"><g clip-path="url(#afeef9030e)"><g clip-path="url(#06b8ed0ada)"><path fill="#005778" d="M 94.808594 18.449219 C 94.925781 18.164062 95.25 18.027344 95.539062 18.148438 C 95.546875 18.148438 95.558594 18.15625 95.566406 18.160156 C 95.847656 18.289062 95.964844 18.625 95.835938 18.902344 C 95.703125 19.183594 95.371094 19.300781 95.089844 19.167969 C 94.820312 19.042969 94.695312 18.726562 94.808594 18.449219 Z M 83.042969 29.078125 C 84.65625 29.839844 85.347656 31.765625 84.585938 33.375 C 85.347656 31.765625 87.269531 31.074219 88.878906 31.835938 C 88.882812 31.835938 88.882812 31.835938 88.882812 31.835938 C 87.269531 31.074219 86.578125 29.152344 87.339844 27.539062 C 86.582031 29.148438 84.65625 29.839844 83.042969 29.078125 Z M 78.664062 17.222656 C 77.890625 19.054688 78.066406 21.144531 79.125 22.820312 L 80.914062 21.148438 L 86.113281 20.71875 L 95.355469 20.578125 C 96.414062 20.5625 97.261719 19.695312 97.246094 18.636719 C 97.230469 17.578125 96.363281 16.734375 95.304688 16.75 C 95.21875 16.753906 95.128906 16.757812 95.042969 16.773438 L 85.898438 18.152344 L 80.703125 18.582031 Z M 80.765625 9.4375 C 82.050781 10.042969 82.605469 11.585938 81.996094 12.871094 C 81.996094 12.871094 81.996094 12.875 81.996094 12.875 C 82.605469 11.585938 84.140625 11.035156 85.433594 11.640625 C 84.140625 11.03125 83.589844 9.496094 84.199219 8.203125 C 83.589844 9.496094 82.050781 10.042969 80.765625 9.4375 Z M 74.574219 9.707031 L 76.328125 30.910156 L 76.46875 30.898438 C 76.785156 30.875 77.019531 30.59375 76.992188 30.277344 L 76.574219 25.207031 L 78.742188 23.175781 C 77.53125 21.316406 77.339844 18.96875 78.226562 16.933594 L 75.757812 15.289062 L 75.335938 10.222656 C 75.308594 9.902344 75.03125 9.667969 74.714844 9.691406 Z M 71.835938 7.121094 C 71.796875 7.210938 71.777344 7.304688 71.785156 7.402344 L 73.957031 33.640625 C 73.984375 33.953125 74.261719 34.191406 74.578125 34.164062 L 76.078125 34.039062 L 73.816406 6.65625 L 72.316406 6.78125 C 72.105469 6.796875 71.921875 6.925781 71.835938 7.117188 L 71.835938 7.121094 " fill-opacity="1" fill-rule="nonzero"/></g></g></g><g clip-path="url(#2d07990672)"><g clip-path="url(#f579836f7f)"><g clip-path="url(#40a9814eba)"><path fill="#005778" d="M 89.394531 20.402344 C 89.394531 20.402344 89.394531 20.402344 89.394531 20.398438 C 89.789062 19.851562 90.550781 19.726562 91.097656 20.121094 C 93.761719 22.03125 95.734375 24.628906 96.789062 27.636719 C 97.71875 30.273438 97.75 32.6875 97.464844 34.066406 C 97.332031 34.726562 96.6875 35.152344 96.027344 35.015625 C 95.367188 34.878906 94.941406 34.238281 95.078125 33.578125 C 95.429688 31.855469 95.191406 26.054688 89.675781 22.101562 C 89.128906 21.710938 89.003906 20.949219 89.394531 20.402344 " fill-opacity="1" fill-rule="nonzero"/></g></g></g><g clip-path="url(#19d51ec901)"><g clip-path="url(#45394009ed)"><g clip-path="url(#79973d4710)"><path fill="#005778" d="M 83.238281 20.964844 C 83.058594 20.558594 83.003906 20.070312 83.019531 19.585938 C 83.234375 19.667969 83.449219 19.75 83.660156 19.828125 C 84.34375 20.089844 85.019531 20.351562 85.640625 20.703125 C 85.71875 20.746094 85.816406 20.726562 85.871094 20.65625 C 85.925781 20.578125 85.910156 20.46875 85.832031 20.410156 C 85.21875 19.96875 84.535156 19.640625 83.855469 19.351562 C 83.515625 19.203125 83.179688 19.058594 82.855469 18.910156 C 82.53125 18.761719 82.25 18.597656 82.042969 18.367188 C 81.832031 18.136719 81.714844 17.859375 81.742188 17.59375 C 81.765625 17.335938 81.9375 17.050781 82.164062 16.878906 C 82.277344 16.792969 82.40625 16.734375 82.535156 16.703125 C 82.675781 16.679688 82.769531 16.6875 82.945312 16.753906 C 83.265625 16.863281 83.597656 17.019531 83.914062 17.183594 L 83.921875 17.183594 C 83.996094 17.222656 84.089844 17.203125 84.144531 17.132812 C 84.203125 17.054688 84.183594 16.945312 84.105469 16.886719 C 83.800781 16.65625 83.488281 16.449219 83.125 16.289062 C 83.035156 16.25 82.941406 16.210938 82.816406 16.183594 C 82.773438 16.175781 82.730469 16.171875 82.6875 16.171875 C 82.578125 15.910156 82.550781 15.628906 82.628906 15.355469 C 82.71875 15.042969 82.933594 14.753906 83.203125 14.566406 C 83.398438 14.410156 83.746094 14.445312 84.097656 14.558594 C 84.453125 14.664062 84.8125 14.828125 85.179688 14.984375 C 85.253906 15.015625 85.34375 14.996094 85.394531 14.929688 C 85.453125 14.851562 85.4375 14.738281 85.359375 14.679688 C 85.066406 14.449219 84.746094 14.25 84.386719 14.089844 C 84.40625 13.867188 84.484375 13.65625 84.613281 13.472656 C 84.683594 13.375 84.769531 13.285156 84.867188 13.210938 C 85.015625 13.089844 85.191406 13.003906 85.351562 12.976562 C 85.5 12.953125 85.707031 12.988281 85.902344 13.054688 C 86.300781 13.191406 86.695312 13.429688 87.089844 13.667969 C 87.484375 13.914062 87.886719 14.171875 88.230469 14.449219 C 88.917969 15.03125 89.539062 15.734375 89.914062 16.53125 C 90.105469 16.925781 90.214844 17.347656 90.179688 17.757812 C 90.171875 17.820312 90.160156 17.886719 90.148438 17.953125 C 90.125 18.066406 90.09375 18.179688 90.054688 18.289062 C 89.972656 18.535156 89.863281 18.78125 89.742188 19.019531 L 89.738281 19.03125 C 89.699219 19.113281 89.726562 19.214844 89.808594 19.261719 C 89.894531 19.308594 90 19.277344 90.046875 19.195312 C 90.175781 18.964844 90.308594 18.734375 90.414062 18.484375 C 90.789062 18.449219 91.089844 18.550781 91.269531 18.757812 C 91.488281 19.015625 91.53125 19.460938 91.382812 20.011719 C 91.035156 21.292969 89.523438 22.617188 88.792969 22.730469 C 88.101562 22.84375 87.851562 22.21875 87.78125 21.996094 C 87.925781 21.875 88.054688 21.742188 88.171875 21.601562 C 88.222656 21.542969 88.230469 21.457031 88.183594 21.390625 C 88.128906 21.3125 88.019531 21.292969 87.945312 21.351562 L 87.933594 21.359375 C 87.675781 21.539062 87.425781 21.710938 87.179688 21.808594 C 86.941406 21.910156 86.675781 21.90625 86.375 21.949219 C 86.078125 21.980469 85.769531 21.960938 85.464844 21.925781 C 85.160156 21.894531 84.855469 21.847656 84.558594 21.78125 C 84.269531 21.714844 83.964844 21.632812 83.726562 21.515625 C 83.515625 21.410156 83.351562 21.210938 83.238281 20.964844 Z M 83.484375 22 C 83.8125 22.152344 84.128906 22.222656 84.449219 22.292969 C 85.09375 22.421875 85.734375 22.453125 86.390625 22.46875 C 86.558594 22.46875 86.722656 22.464844 86.898438 22.4375 C 87.019531 22.417969 87.140625 22.371094 87.257812 22.320312 C 87.261719 22.324219 87.261719 22.324219 87.261719 22.324219 C 87.464844 22.839844 87.964844 23.476562 88.886719 23.328125 C 89.914062 23.164062 91.566406 21.644531 91.960938 20.171875 C 92.222656 19.210938 91.976562 18.65625 91.722656 18.363281 C 91.464844 18.058594 91.070312 17.890625 90.609375 17.875 C 90.613281 17.859375 90.617188 17.839844 90.621094 17.824219 C 90.691406 17.300781 90.578125 16.785156 90.378906 16.328125 C 89.976562 15.417969 89.332031 14.652344 88.585938 14.019531 C 88.199219 13.703125 87.796875 13.445312 87.394531 13.183594 C 86.984375 12.929688 86.5625 12.675781 86.074219 12.511719 C 85.820312 12.433594 85.558594 12.375 85.253906 12.421875 C 84.960938 12.476562 84.714844 12.613281 84.503906 12.792969 C 84.171875 13.066406 83.933594 13.476562 83.875 13.917969 C 83.792969 13.898438 83.707031 13.886719 83.617188 13.878906 C 83.382812 13.851562 83.078125 13.910156 82.863281 14.070312 C 82.476562 14.339844 82.183594 14.734375 82.054688 15.195312 C 81.949219 15.542969 81.964844 15.925781 82.085938 16.273438 C 81.992188 16.3125 81.90625 16.359375 81.828125 16.414062 C 81.460938 16.675781 81.203125 17.0625 81.144531 17.535156 C 81.097656 18.015625 81.324219 18.460938 81.613281 18.765625 C 81.851562 19.019531 82.144531 19.195312 82.433594 19.335938 C 82.402344 19.957031 82.449219 20.59375 82.726562 21.199219 C 82.882812 21.519531 83.132812 21.832031 83.484375 22 " fill-opacity="1" fill-rule="nonzero"/></g></g></g><g clip-path="url(#5720a8618e)"><g clip-path="url(#cd2ab6cf93)"><g clip-path="url(#c360dcacda)"><path fill="#ffd700" d="M 87.988281 19.710938 C 87.964844 19.671875 87.957031 19.625 87.96875 19.585938 L 87.96875 19.582031 C 88.042969 19.257812 88.191406 18.984375 88.355469 18.722656 C 88.527344 18.464844 88.707031 18.21875 88.945312 17.992188 L 88.949219 17.992188 C 89.007812 17.933594 89.097656 17.9375 89.15625 17.996094 C 89.1875 18.027344 89.199219 18.070312 89.195312 18.113281 C 89.164062 18.457031 89.027344 18.757812 88.867188 19.035156 C 88.785156 19.175781 88.691406 19.308594 88.585938 19.429688 C 88.480469 19.554688 88.363281 19.667969 88.214844 19.761719 C 88.140625 19.808594 88.035156 19.785156 87.988281 19.710938 Z M 83.726562 21.515625 C 83.964844 21.632812 84.269531 21.714844 84.558594 21.78125 C 84.855469 21.847656 85.160156 21.894531 85.464844 21.925781 C 85.769531 21.960938 86.078125 21.980469 86.375 21.949219 C 86.675781 21.90625 86.941406 21.910156 87.179688 21.808594 C 87.425781 21.710938 87.675781 21.539062 87.933594 21.359375 L 87.945312 21.351562 C 88.019531 21.292969 88.128906 21.3125 88.183594 21.390625 C 88.230469 21.457031 88.222656 21.542969 88.171875 21.601562 C 88.054688 21.742188 87.925781 21.875 87.78125 21.996094 C 87.851562 22.21875 88.101562 22.84375 88.792969 22.730469 C 89.523438 22.617188 91.035156 21.292969 91.382812 20.011719 C 91.53125 19.460938 91.488281 19.015625 91.269531 18.757812 C 91.089844 18.550781 90.789062 18.449219 90.414062 18.484375 C 90.308594 18.734375 90.175781 18.964844 90.046875 19.195312 C 90 19.277344 89.894531 19.308594 89.808594 19.261719 C 89.726562 19.214844 89.699219 19.113281 89.738281 19.03125 L 89.742188 19.019531 C 89.863281 18.78125 89.972656 18.535156 90.054688 18.289062 C 90.09375 18.179688 90.125 18.066406 90.148438 17.953125 C 90.160156 17.886719 90.171875 17.820312 90.179688 17.757812 C 90.214844 17.347656 90.105469 16.925781 89.914062 16.53125 C 89.539062 15.734375 88.917969 15.03125 88.230469 14.449219 C 87.886719 14.171875 87.484375 13.914062 87.089844 13.667969 C 86.695312 13.429688 86.300781 13.191406 85.902344 13.054688 C 85.707031 12.988281 85.5 12.953125 85.351562 12.976562 C 85.191406 13.003906 85.015625 13.089844 84.867188 13.210938 C 84.769531 13.285156 84.683594 13.375 84.613281 13.472656 C 84.484375 13.65625 84.40625 13.867188 84.386719 14.089844 C 84.746094 14.25 85.066406 14.449219 85.359375 14.679688 C 85.4375 14.738281 85.453125 14.851562 85.394531 14.929688 C 85.34375 14.996094 85.253906 15.015625 85.179688 14.984375 C 84.8125 14.828125 84.453125 14.664062 84.097656 14.558594 C 83.746094 14.445312 83.398438 14.410156 83.203125 14.566406 C 82.933594 14.753906 82.71875 15.042969 82.628906 15.355469 C 82.550781 15.628906 82.578125 15.910156 82.6875 16.171875 C 82.730469 16.171875 82.773438 16.175781 82.816406 16.183594 C 82.941406 16.210938 83.035156 16.25 83.125 16.289062 C 83.488281 16.449219 83.800781 16.65625 84.105469 16.886719 C 84.183594 16.945312 84.203125 17.054688 84.144531 17.132812 C 84.089844 17.203125 83.996094 17.222656 83.921875 17.183594 L 83.914062 17.183594 C 83.597656 17.019531 83.265625 16.863281 82.945312 16.753906 C 82.769531 16.6875 82.675781 16.679688 82.535156 16.703125 C 82.40625 16.734375 82.277344 16.792969 82.164062 16.878906 C 81.9375 17.050781 81.765625 17.335938 81.742188 17.59375 C 81.714844 17.859375 81.832031 18.136719 82.042969 18.367188 C 82.25 18.597656 82.53125 18.761719 82.855469 18.910156 C 83.179688 19.058594 83.515625 19.203125 83.855469 19.351562 C 84.535156 19.640625 85.21875 19.96875 85.832031 20.410156 C 85.910156 20.46875 85.925781 20.578125 85.871094 20.65625 C 85.816406 20.726562 85.71875 20.746094 85.640625 20.703125 C 85.019531 20.351562 84.34375 20.089844 83.660156 19.828125 C 83.449219 19.75 83.234375 19.667969 83.019531 19.585938 C 83.003906 20.070312 83.058594 20.558594 83.238281 20.964844 C 83.351562 21.210938 83.515625 21.410156 83.726562 21.515625 " fill-opacity="1" fill-rule="nonzero"/></g></g></g><g clip-path="url(#ccc9d3d83a)"><g clip-path="url(#2822b5a870)"><g clip-path="url(#a5ed4f37c2)"><path fill="#005778" d="M 87.988281 19.710938 C 87.964844 19.671875 87.957031 19.625 87.96875 19.585938 L 87.96875 19.582031 C 88.042969 19.257812 88.191406 18.984375 88.355469 18.722656 C 88.527344 18.464844 88.707031 18.21875 88.945312 17.992188 L 88.949219 17.992188 C 89.007812 17.933594 89.097656 17.9375 89.15625 17.996094 C 89.1875 18.027344 89.199219 18.070312 89.195312 18.113281 C 89.164062 18.457031 89.027344 18.757812 88.867188 19.035156 C 88.785156 19.175781 88.691406 19.308594 88.585938 19.429688 C 88.480469 19.554688 88.363281 19.667969 88.214844 19.761719 C 88.140625 19.808594 88.035156 19.785156 87.988281 19.710938 " fill-opacity="1" fill-rule="nonzero"/></g></g></g><g clip-path="url(#4b701c1329)"><path stroke-linecap="butt" transform="matrix(0.61165, -0.0144615, 0.0144615, 0.61165, 3.09194, 31.428632)" fill="none" stroke-linejoin="miter" d="M 36.233588 8.892517 L 31.659625 35.958564 L 20.567234 36.194444 L 18.184569 22.171022 L 15.801378 35.181278 L 4.705365 35.570346 L 0.0993756 8.887577 L 9.782276 8.030823 L 11.73644 24.241039 L 14.354959 8.030367 L 21.97392 8.031685 L 25.021858 24.440195 L 26.5849 8.032135 Z M 61.931704 34.317711 L 52.245829 35.570353 L 51.072937 31.155155 L 46.621528 31.158478 L 45.642345 35.567498 L 35.683463 34.591213 L 43.457673 8.577951 L 54.31476 8.029961 Z M 50.371202 25.18004 L 48.884243 18.381671 L 47.439816 25.180982 Z M 82.360516 26.000238 C 82.363091 27.782109 82.051957 29.326651 81.433799 30.62125 C 80.81564 31.91585 79.972981 32.981617 78.899287 33.824784 C 77.819362 34.661416 76.565696 35.28319 75.125828 35.677036 C 73.685808 36.077265 72.14211 36.270678 70.487896 36.276272 C 69.84931 36.273946 69.148857 36.187135 68.386386 36.02222 C 67.624067 35.850922 66.85627 35.641177 66.076764 35.386449 C 65.290874 35.131571 64.543735 34.858449 63.816197 34.566632 C 63.095193 34.268583 62.456562 33.998027 61.894374 33.735665 L 62.752352 26.079481 C 63.860641 26.744326 65.087746 27.245933 66.433515 27.590686 C 67.785666 27.93559 69.109978 28.107402 70.412833 28.106274 C 70.655381 28.112009 70.955828 28.099953 71.307488 28.082722 C 71.659299 28.059108 71.992716 28.003126 72.314424 27.902164 C 72.635981 27.807584 72.901299 27.660583 73.122994 27.467846 C 73.34484 27.268726 73.459989 26.990446 73.455825 26.626322 C 73.455328 26.37724 73.377331 26.164644 73.221834 25.988535 C 73.066338 25.812425 72.865256 25.673556 72.61889 25.559162 C 72.372374 25.451151 72.086957 25.367766 71.775405 25.309308 C 71.463853 25.250851 71.158381 25.20531 70.85884 25.179069 C 70.559299 25.152827 70.278605 25.139804 70.016758 25.14 C 69.761293 25.140346 69.550508 25.141749 69.39732 25.138127 C 68.273184 25.143481 67.255551 24.966146 66.337886 24.612356 C 65.42022 24.258566 64.633683 23.760989 63.971891 23.119473 C 63.316632 22.471726 62.804965 21.693258 62.443424 20.77784 C 62.075651 19.855887 61.895395 18.836185 61.896273 17.718584 C 61.894346 16.179412 62.201405 14.807207 62.824136 13.589353 C 63.440483 12.371347 64.269623 11.337193 65.305321 10.480355 C 66.340868 9.6299 67.525077 8.974552 68.864178 8.520846 C 70.209813 8.060907 71.594544 7.83819 73.025207 7.833697 C 73.663793 7.836023 74.321075 7.85795 74.996903 7.905861 C 75.679263 7.94754 76.347802 8.033597 77.02212 8.145336 C 77.689904 8.263307 78.344168 8.412891 78.984761 8.60047 C 79.625505 8.781666 80.226895 9.006636 80.801547 9.282066 L 80.058505 17.209197 C 79.171396 16.913607 78.244933 16.661791 77.272583 16.459982 C 76.306616 16.258324 75.357383 16.159244 74.431418 16.15651 C 74.265313 16.158969 74.048145 16.160221 73.779764 16.166649 C 73.511382 16.173076 73.229933 16.191967 72.9418 16.223473 C 72.647284 16.254828 72.352314 16.305332 72.050661 16.36845 C 71.748856 16.437952 71.485047 16.521124 71.252397 16.636965 C 71.013515 16.746273 70.824942 16.888702 70.686374 17.077018 C 70.541575 17.258801 70.472616 17.474308 70.48603 17.717309 C 70.498387 18.00499 70.608148 18.224723 70.808777 18.382741 C 71.009406 18.540758 71.27492 18.655605 71.592553 18.726979 C 71.910186 18.798353 72.260639 18.832184 72.643761 18.834856 C 73.033416 18.831296 73.410457 18.821051 73.787648 18.804424 C 74.164991 18.781413 74.516651 18.764182 74.84278 18.746347 C 75.169059 18.72213 75.43729 18.722085 75.64139 18.733297 C 76.687271 18.796344 77.62072 19.022779 78.454805 19.400139 C 79.28889 19.777498 79.998682 20.279648 80.57795 20.900053 C 81.157067 21.526841 81.599277 22.271734 81.904429 23.141114 C 82.209732 24.004112 82.365966 24.959382 82.360516 26.000238 Z M 106.794117 35.218748 L 97.030911 35.690419 L 96.951276 27.443676 L 92.46157 27.446093 L 92.189137 35.997447 L 83.439658 36.001331 L 84.178391 8.538059 L 93.4796 8.968722 L 92.892582 22.992181 L 97.228949 22.992524 L 97.263287 8.304584 L 106.173136 8.540788 Z M 138.844499 7.525053 L 137.049001 36.195918 L 128.143511 36.585685 L 128.219874 21.470849 L 124.202089 33.656929 L 120.759773 33.658565 L 117.677341 22.760714 L 117.633698 35.411168 L 108.615882 35.689711 L 109.005007 8.697153 L 119.041015 8.302183 L 123.026954 21.233116 L 128.338832 7.525734 Z M 164.899824 34.318998 L 155.213949 35.57164 L 154.041057 31.156443 L 149.589799 31.153383 L 148.610465 35.568785 L 138.651583 34.5925 L 146.425793 8.579239 L 157.28288 8.031249 Z M 153.339322 25.181327 L 151.852363 18.382958 L 150.407936 25.18227 Z M 191.872595 7.993286 L 190.467302 34.47645 L 180.233213 35.415969 L 174.763212 21.236529 L 173.904236 35.687834 L 165.116611 35.68443 L 165.82248 7.99047 L 175.585535 7.525182 L 182.341958 21.588149 L 182.656006 8.305447 Z M 191.872595 7.993286 " stroke="#005778" stroke-width="4.25" stroke-opacity="1" stroke-miterlimit="4"/></g><g fill="#00aeef" fill-opacity="1"><g transform="translate(3.612552, 53.448032)"><g><path d="M 21.765625 -17.109375 L 19.359375 -0.484375 L 12.578125 -0.171875 L 10.921875 -8.71875 L 9.65625 -0.734375 L 2.875 -0.328125 L -0.328125 -16.578125 L 5.578125 -17.25 L 7.015625 -7.359375 L 8.375 -17.3125 L 13.03125 -17.421875 L 15.140625 -7.4375 L 15.859375 -17.5 Z M 21.765625 -17.109375 "/></g></g><g transform="translate(25.820703, 52.922957)"><g><path d="M 15.640625 -1.40625 L 9.75 -0.5 L 8.96875 -3.1875 L 6.25 -3.125 L 5.71875 -0.40625 L -0.390625 -0.84375 L 3.984375 -16.890625 L 10.609375 -17.375 Z M 8.453125 -6.828125 L 7.4375 -10.96875 L 6.65625 -6.78125 Z M 8.453125 -6.828125 "/></g></g><g transform="translate(41.135845, 52.560856)"><g><path d="M 12.71875 -6.421875 C 12.738281 -5.328125 12.566406 -4.378906 12.203125 -3.578125 C 11.847656 -2.785156 11.347656 -2.125 10.703125 -1.59375 C 10.054688 -1.0625 9.296875 -0.660156 8.421875 -0.390625 C 7.546875 -0.128906 6.601562 0.015625 5.59375 0.046875 C 5.195312 0.046875 4.765625 0.00390625 4.296875 -0.078125 C 3.835938 -0.171875 3.363281 -0.289062 2.875 -0.4375 C 2.394531 -0.582031 1.929688 -0.738281 1.484375 -0.90625 C 1.035156 -1.070312 0.640625 -1.234375 0.296875 -1.390625 L 0.71875 -6.078125 C 1.40625 -5.691406 2.160156 -5.40625 2.984375 -5.21875 C 3.816406 -5.03125 4.632812 -4.941406 5.4375 -4.953125 C 5.582031 -4.960938 5.765625 -4.972656 5.984375 -4.984375 C 6.203125 -5.003906 6.40625 -5.046875 6.59375 -5.109375 C 6.78125 -5.179688 6.941406 -5.273438 7.078125 -5.390625 C 7.210938 -5.515625 7.273438 -5.6875 7.265625 -5.90625 C 7.265625 -6.0625 7.210938 -6.191406 7.109375 -6.296875 C 7.015625 -6.398438 6.890625 -6.484375 6.734375 -6.546875 C 6.585938 -6.609375 6.414062 -6.65625 6.21875 -6.6875 C 6.03125 -6.71875 5.84375 -6.738281 5.65625 -6.75 C 5.476562 -6.757812 5.304688 -6.765625 5.140625 -6.765625 C 4.984375 -6.765625 4.859375 -6.757812 4.765625 -6.75 C 4.078125 -6.738281 3.445312 -6.832031 2.875 -7.03125 C 2.3125 -7.226562 1.820312 -7.519531 1.40625 -7.90625 C 1 -8.300781 0.675781 -8.773438 0.4375 -9.328125 C 0.207031 -9.878906 0.0820312 -10.5 0.0625 -11.1875 C 0.0390625 -12.125 0.210938 -12.96875 0.578125 -13.71875 C 0.941406 -14.476562 1.429688 -15.125 2.046875 -15.65625 C 2.671875 -16.195312 3.390625 -16.617188 4.203125 -16.921875 C 5.015625 -17.222656 5.859375 -17.382812 6.734375 -17.40625 C 7.128906 -17.414062 7.53125 -17.410156 7.9375 -17.390625 C 8.351562 -17.367188 8.765625 -17.328125 9.171875 -17.265625 C 9.585938 -17.203125 9.992188 -17.117188 10.390625 -17.015625 C 10.785156 -16.910156 11.160156 -16.78125 11.515625 -16.625 L 11.1875 -11.765625 C 10.632812 -11.929688 10.0625 -12.066406 9.46875 -12.171875 C 8.875 -12.285156 8.289062 -12.335938 7.71875 -12.328125 C 7.613281 -12.328125 7.476562 -12.320312 7.3125 -12.3125 C 7.15625 -12.300781 6.988281 -12.28125 6.8125 -12.25 C 6.632812 -12.226562 6.453125 -12.195312 6.265625 -12.15625 C 6.078125 -12.113281 5.910156 -12.054688 5.765625 -11.984375 C 5.628906 -11.921875 5.519531 -11.828125 5.4375 -11.703125 C 5.351562 -11.585938 5.316406 -11.457031 5.328125 -11.3125 C 5.335938 -11.132812 5.40625 -11 5.53125 -10.90625 C 5.65625 -10.820312 5.816406 -10.757812 6.015625 -10.71875 C 6.210938 -10.675781 6.425781 -10.65625 6.65625 -10.65625 C 6.894531 -10.664062 7.128906 -10.675781 7.359375 -10.6875 C 7.585938 -10.707031 7.800781 -10.726562 8 -10.75 C 8.195312 -10.769531 8.363281 -10.773438 8.5 -10.765625 C 9.132812 -10.742188 9.707031 -10.625 10.21875 -10.40625 C 10.738281 -10.1875 11.179688 -9.890625 11.546875 -9.515625 C 11.910156 -9.140625 12.191406 -8.6875 12.390625 -8.15625 C 12.585938 -7.632812 12.695312 -7.054688 12.71875 -6.421875 Z M 12.71875 -6.421875 "/></g></g><g transform="translate(54.145354, 52.253267)"><g><path d="M 14.78125 -0.828125 L 8.8125 -0.390625 L 8.640625 -5.4375 L 5.890625 -5.375 L 5.859375 -0.140625 L 0.5 -0.015625 L 0.5625 -16.8125 L 6.25 -16.6875 L 6.09375 -8.109375 L 8.75 -8.171875 L 8.546875 -17.15625 L 14.015625 -17.140625 Z M 14.78125 -0.828125 "/></g></g><g transform="translate(69.460497, 51.891166)"><g><path d="M 18.671875 -17.875 L 17.984375 -0.296875 L 12.546875 0.0625 L 12.375 -9.1875 L 10.09375 -1.671875 L 7.984375 -1.625 L 5.9375 -8.234375 L 6.09375 -0.5 L 0.578125 -0.203125 L 0.4375 -16.71875 L 6.5625 -17.109375 L 9.1875 -9.25 L 12.25 -17.71875 Z M 18.671875 -17.875 "/></g></g><g transform="translate(88.801538, 51.433879)"><g><path d="M 15.640625 -1.40625 L 9.75 -0.5 L 8.96875 -3.1875 L 6.25 -3.125 L 5.71875 -0.40625 L -0.390625 -0.84375 L 3.984375 -16.890625 L 10.609375 -17.375 Z M 8.453125 -6.828125 L 7.4375 -10.96875 L 6.65625 -6.78125 Z M 8.453125 -6.828125 "/></g></g><g transform="translate(104.116681, 51.071778)"><g><path d="M 16.453125 -17.546875 L 15.984375 -1.3125 L 9.71875 -0.59375 L 6.171875 -9.1875 L 5.859375 -0.328125 L 0.484375 -0.203125 L 0.515625 -17.15625 L 6.484375 -17.578125 L 10.828125 -9.078125 L 10.8125 -17.203125 Z M 16.453125 -17.546875 "/></g></g></g><g clip-path="url(#9801cbde13)"><g clip-path="url(#7874fc0d57)"><g clip-path="url(#2d877381a9)"><path fill="#ffd700" d="M 90.503906 15.929688 C 90.578125 15.75 90.789062 15.664062 90.972656 15.738281 C 90.980469 15.738281 90.984375 15.742188 90.992188 15.746094 C 91.171875 15.832031 91.246094 16.046875 91.164062 16.222656 C 91.078125 16.402344 90.863281 16.480469 90.683594 16.394531 C 90.511719 16.3125 90.429688 16.109375 90.503906 15.929688 Z M 82.949219 22.757812 C 83.984375 23.246094 84.429688 24.480469 83.941406 25.515625 C 84.429688 24.480469 85.664062 24.039062 86.695312 24.527344 C 86.699219 24.527344 86.699219 24.527344 86.699219 24.527344 C 85.664062 24.039062 85.21875 22.804688 85.710938 21.769531 C 85.222656 22.804688 83.984375 23.246094 82.949219 22.757812 Z M 80.136719 15.144531 C 79.640625 16.320312 79.753906 17.664062 80.433594 18.738281 L 81.582031 17.664062 L 84.921875 17.390625 L 90.855469 17.300781 C 91.535156 17.289062 92.078125 16.730469 92.070312 16.054688 C 92.058594 15.375 91.5 14.832031 90.820312 14.839844 C 90.765625 14.84375 90.710938 14.847656 90.652344 14.855469 L 84.785156 15.742188 L 81.445312 16.015625 Z M 81.488281 10.144531 C 82.3125 10.535156 82.667969 11.523438 82.277344 12.351562 C 82.667969 11.523438 83.65625 11.171875 84.484375 11.5625 C 83.65625 11.167969 83.300781 10.183594 83.691406 9.355469 C 83.300781 10.183594 82.3125 10.535156 81.488281 10.144531 Z M 77.511719 10.316406 L 78.636719 23.933594 L 78.726562 23.925781 C 78.929688 23.910156 79.082031 23.730469 79.066406 23.527344 L 78.796875 20.269531 L 80.1875 18.96875 C 79.410156 17.773438 79.285156 16.265625 79.859375 14.960938 L 78.269531 13.902344 L 78 10.648438 C 77.984375 10.445312 77.804688 10.292969 77.601562 10.308594 Z M 75.753906 8.660156 C 75.726562 8.714844 75.71875 8.777344 75.722656 8.839844 L 77.113281 25.683594 C 77.132812 25.886719 77.3125 26.039062 77.515625 26.023438 L 78.476562 25.941406 L 77.023438 8.359375 L 76.0625 8.441406 C 75.925781 8.449219 75.808594 8.535156 75.753906 8.65625 L 75.753906 8.660156 " fill-opacity="1" fill-rule="nonzero"/></g></g></g><g clip-path="url(#a43e4a07ac)"><g clip-path="url(#cff5951db9)"><g clip-path="url(#f297de830f)"><path fill="#ffd700" d="M 93.925781 36.210938 C 94.011719 36.011719 94.238281 35.921875 94.4375 36.003906 C 94.441406 36.007812 94.449219 36.011719 94.457031 36.015625 C 94.648438 36.109375 94.730469 36.339844 94.636719 36.53125 C 94.542969 36.726562 94.3125 36.808594 94.117188 36.714844 C 93.929688 36.625 93.84375 36.402344 93.925781 36.210938 Z M 85.675781 43.519531 C 86.792969 44.0625 87.257812 45.402344 86.71875 46.519531 C 87.257812 45.402344 88.597656 44.9375 89.714844 45.476562 C 88.601562 44.9375 88.132812 43.59375 88.671875 42.480469 C 88.132812 43.59375 86.789062 44.0625 85.675781 43.519531 Z M 82.710938 35.25 C 82.164062 36.515625 82.269531 37.972656 82.992188 39.144531 L 84.25 37.992188 L 87.867188 37.730469 L 94.292969 37.695312 C 95.03125 37.691406 95.625 37.09375 95.621094 36.359375 C 95.617188 35.621094 95.019531 35.03125 94.28125 35.03125 C 94.222656 35.035156 94.160156 35.035156 94.101562 35.046875 L 87.734375 35.945312 L 84.121094 36.207031 Z M 84.222656 29.851562 C 85.117188 30.28125 85.488281 31.355469 85.058594 32.246094 C 85.058594 32.246094 85.058594 32.25 85.058594 32.25 C 85.488281 31.355469 86.5625 30.984375 87.453125 31.414062 C 86.5625 30.980469 86.1875 29.910156 86.621094 29.015625 C 86.1875 29.910156 85.117188 30.28125 84.222656 29.851562 Z M 79.921875 29.996094 L 80.996094 44.75 L 81.089844 44.738281 C 81.3125 44.726562 81.480469 44.53125 81.460938 44.3125 L 81.207031 40.785156 L 82.726562 39.390625 C 81.898438 38.085938 81.777344 36.453125 82.410156 35.046875 L 80.703125 33.882812 L 80.445312 30.359375 C 80.429688 30.136719 80.238281 29.972656 80.015625 29.988281 Z M 78.03125 28.179688 C 78.003906 28.242188 77.992188 28.308594 77.996094 28.375 L 79.328125 46.628906 C 79.34375 46.847656 79.535156 47.015625 79.757812 47 L 80.800781 46.921875 L 79.414062 27.867188 L 78.371094 27.945312 C 78.222656 27.957031 78.09375 28.046875 78.035156 28.179688 L 78.03125 28.179688 " fill-opacity="1" fill-rule="nonzero"/></g></g></g><g fill="#005778" fill-opacity="1"><g transform="translate(5.339709, 60.885623)"><g><path d="M 1.625 0.078125 C 1.164062 0.078125 0.820312 -0.0390625 0.59375 -0.28125 C 0.375 -0.53125 0.257812 -0.914062 0.25 -1.4375 L 1.15625 -1.578125 C 1.15625 -1.273438 1.1875 -1.054688 1.25 -0.921875 C 1.320312 -0.796875 1.425781 -0.734375 1.5625 -0.734375 C 1.738281 -0.734375 1.828125 -0.847656 1.828125 -1.078125 C 1.828125 -1.265625 1.785156 -1.421875 1.703125 -1.546875 C 1.617188 -1.679688 1.488281 -1.828125 1.3125 -1.984375 L 0.890625 -2.34375 C 0.691406 -2.519531 0.535156 -2.703125 0.421875 -2.890625 C 0.304688 -3.085938 0.25 -3.320312 0.25 -3.59375 C 0.25 -3.988281 0.367188 -4.296875 0.609375 -4.515625 C 0.847656 -4.734375 1.175781 -4.84375 1.59375 -4.84375 C 2.039062 -4.84375 2.34375 -4.707031 2.5 -4.4375 C 2.664062 -4.175781 2.757812 -3.859375 2.78125 -3.484375 L 1.875 -3.375 C 1.863281 -3.613281 1.835938 -3.785156 1.796875 -3.890625 C 1.765625 -4.003906 1.6875 -4.0625 1.5625 -4.0625 C 1.46875 -4.0625 1.394531 -4.019531 1.34375 -3.9375 C 1.289062 -3.863281 1.265625 -3.78125 1.265625 -3.6875 C 1.265625 -3.53125 1.300781 -3.394531 1.375 -3.28125 C 1.445312 -3.175781 1.566406 -3.050781 1.734375 -2.90625 L 2.125 -2.5625 C 2.363281 -2.363281 2.546875 -2.148438 2.671875 -1.921875 C 2.804688 -1.703125 2.875 -1.4375 2.875 -1.125 C 2.875 -0.90625 2.820312 -0.703125 2.71875 -0.515625 C 2.613281 -0.335938 2.460938 -0.191406 2.265625 -0.078125 C 2.078125 0.0234375 1.863281 0.078125 1.625 0.078125 Z M 1.625 0.078125 "/></g></g></g><g fill="#005778" fill-opacity="1"><g transform="translate(10.288245, 60.885623)"><g><path d="M 0.375 -4.765625 L 1.421875 -4.765625 L 1.421875 -2.84375 L 2.15625 -2.84375 L 2.15625 -4.765625 L 3.21875 -4.765625 L 3.21875 0 L 2.15625 0 L 2.15625 -2.078125 L 1.421875 -2.078125 L 1.421875 0 L 0.375 0 Z M 0.375 -4.765625 "/></g></g></g><g fill="#005778" fill-opacity="1"><g transform="translate(15.80233, 60.885623)"><g><path d="M 0.359375 -4.765625 L 1.40625 -4.765625 L 1.40625 0 L 0.359375 0 Z M 0.359375 -4.765625 "/></g></g></g><g fill="#005778" fill-opacity="1"><g transform="translate(19.496057, 60.885623)"><g><path d="M 0.359375 -4.765625 L 1.09375 -4.765625 L 2.078125 -2.46875 L 2.078125 -4.765625 L 2.9375 -4.765625 L 2.9375 0 L 2.234375 0 L 1.25 -2.46875 L 1.25 0 L 0.359375 0 Z M 0.359375 -4.765625 "/></g></g></g><g fill="#005778" fill-opacity="1"><g transform="translate(24.721472, 60.885623)"><g><path d="M 0.359375 -4.765625 L 1.40625 -4.765625 L 1.40625 0 L 0.359375 0 Z M 0.359375 -4.765625 "/></g></g></g><g fill="#005778" fill-opacity="1"><g transform="translate(28.415198, 60.885623)"><g><path d="M 0.359375 -4.765625 L 1.09375 -4.765625 L 2.078125 -2.46875 L 2.078125 -4.765625 L 2.9375 -4.765625 L 2.9375 0 L 2.234375 0 L 1.25 -2.46875 L 1.25 0 L 0.359375 0 Z M 0.359375 -4.765625 "/></g></g></g><g fill="#005778" fill-opacity="1"><g transform="translate(33.640613, 60.885623)"><g><path d="M 1.59375 0.078125 C 1.125 0.078125 0.785156 -0.0664062 0.578125 -0.359375 C 0.378906 -0.648438 0.28125 -1.054688 0.28125 -1.578125 L 0.28125 -3.1875 C 0.28125 -3.71875 0.390625 -4.125 0.609375 -4.40625 C 0.828125 -4.695312 1.195312 -4.84375 1.71875 -4.84375 C 2.21875 -4.84375 2.570312 -4.71875 2.78125 -4.46875 C 3 -4.226562 3.109375 -3.882812 3.109375 -3.4375 L 3.109375 -3.140625 L 2.078125 -3.140625 L 2.078125 -3.515625 C 2.078125 -3.710938 2.054688 -3.859375 2.015625 -3.953125 C 1.972656 -4.046875 1.878906 -4.09375 1.734375 -4.09375 C 1.578125 -4.09375 1.472656 -4.039062 1.421875 -3.9375 C 1.378906 -3.832031 1.359375 -3.6875 1.359375 -3.5 L 1.359375 -1.28125 C 1.359375 -1.09375 1.382812 -0.941406 1.4375 -0.828125 C 1.5 -0.722656 1.609375 -0.671875 1.765625 -0.671875 C 2.035156 -0.671875 2.171875 -0.878906 2.171875 -1.296875 L 2.171875 -1.859375 L 1.75 -1.859375 L 1.75 -2.46875 L 3.125 -2.46875 L 3.125 0 L 2.421875 0 L 2.375 -0.390625 C 2.21875 -0.078125 1.957031 0.078125 1.59375 0.078125 Z M 1.59375 0.078125 "/></g></g></g><g fill="#005778" fill-opacity="1"><g transform="translate(38.989747, 60.885623)"><g/></g></g><g fill="#005778" fill-opacity="1"><g transform="translate(42.418372, 60.885623)"><g><path d="M 0.359375 -4.765625 L 1.953125 -4.765625 C 2.378906 -4.765625 2.691406 -4.644531 2.890625 -4.40625 C 3.097656 -4.175781 3.203125 -3.835938 3.203125 -3.390625 C 3.203125 -2.878906 3.082031 -2.523438 2.84375 -2.328125 C 2.601562 -2.128906 2.265625 -2.03125 1.828125 -2.03125 L 1.40625 -2.03125 L 1.40625 0 L 0.359375 0 Z M 1.765625 -2.765625 C 1.941406 -2.765625 2.0625 -2.8125 2.125 -2.90625 C 2.1875 -3.007812 2.21875 -3.175781 2.21875 -3.40625 C 2.21875 -3.613281 2.1875 -3.769531 2.125 -3.875 C 2.070312 -3.976562 1.945312 -4.03125 1.75 -4.03125 L 1.40625 -4.03125 L 1.40625 -2.765625 Z M 1.765625 -2.765625 "/></g></g></g><g fill="#005778" fill-opacity="1"><g transform="translate(47.702704, 60.885623)"><g><path d="M 1.03125 -4.765625 L 2.234375 -4.765625 L 3.109375 0 L 2.140625 0 L 1.984375 -1 L 1.28125 -1 L 1.125 0 L 0.125 0 Z M 1.890625 -1.640625 L 1.625 -3.5 L 1.375 -1.640625 Z M 1.890625 -1.640625 "/></g></g></g><g fill="#005778" fill-opacity="1"><g transform="translate(52.869212, 60.885623)"><g><path d="M 0.359375 -4.765625 L 1.09375 -4.765625 L 2.078125 -2.46875 L 2.078125 -4.765625 L 2.9375 -4.765625 L 2.9375 0 L 2.234375 0 L 1.25 -2.46875 L 1.25 0 L 0.359375 0 Z M 0.359375 -4.765625 "/></g></g></g><g fill="#005778" fill-opacity="1"><g transform="translate(58.094629, 60.885623)"><g><path d="M 0.359375 -4.765625 L 2.5 -4.765625 L 2.5 -4.046875 L 1.40625 -4.046875 L 1.40625 -2.875 L 2.234375 -2.875 L 2.234375 -2.140625 L 1.40625 -2.140625 L 1.40625 -0.71875 L 2.515625 -0.71875 L 2.515625 0 L 0.359375 0 Z M 0.359375 -4.765625 "/></g></g></g><g fill="#005778" fill-opacity="1"><g transform="translate(62.648463, 60.885623)"><g><path d="M 0.359375 -4.765625 L 1.40625 -4.765625 L 1.40625 -0.71875 L 2.5 -0.71875 L 2.5 0 L 0.359375 0 Z M 0.359375 -4.765625 "/></g></g></g><g fill="#005778" fill-opacity="1"><g transform="translate(67.178731, 60.885623)"><g><path d="M 1.625 0.078125 C 1.164062 0.078125 0.820312 -0.0390625 0.59375 -0.28125 C 0.375 -0.53125 0.257812 -0.914062 0.25 -1.4375 L 1.15625 -1.578125 C 1.15625 -1.273438 1.1875 -1.054688 1.25 -0.921875 C 1.320312 -0.796875 1.425781 -0.734375 1.5625 -0.734375 C 1.738281 -0.734375 1.828125 -0.847656 1.828125 -1.078125 C 1.828125 -1.265625 1.785156 -1.421875 1.703125 -1.546875 C 1.617188 -1.679688 1.488281 -1.828125 1.3125 -1.984375 L 0.890625 -2.34375 C 0.691406 -2.519531 0.535156 -2.703125 0.421875 -2.890625 C 0.304688 -3.085938 0.25 -3.320312 0.25 -3.59375 C 0.25 -3.988281 0.367188 -4.296875 0.609375 -4.515625 C 0.847656 -4.734375 1.175781 -4.84375 1.59375 -4.84375 C 2.039062 -4.84375 2.34375 -4.707031 2.5 -4.4375 C 2.664062 -4.175781 2.757812 -3.859375 2.78125 -3.484375 L 1.875 -3.375 C 1.863281 -3.613281 1.835938 -3.785156 1.796875 -3.890625 C 1.765625 -4.003906 1.6875 -4.0625 1.5625 -4.0625 C 1.46875 -4.0625 1.394531 -4.019531 1.34375 -3.9375 C 1.289062 -3.863281 1.265625 -3.78125 1.265625 -3.6875 C 1.265625 -3.53125 1.300781 -3.394531 1.375 -3.28125 C 1.445312 -3.175781 1.566406 -3.050781 1.734375 -2.90625 L 2.125 -2.5625 C 2.363281 -2.363281 2.546875 -2.148438 2.671875 -1.921875 C 2.804688 -1.703125 2.875 -1.4375 2.875 -1.125 C 2.875 -0.90625 2.820312 -0.703125 2.71875 -0.515625 C 2.613281 -0.335938 2.460938 -0.191406 2.265625 -0.078125 C 2.078125 0.0234375 1.863281 0.078125 1.625 0.078125 Z M 1.625 0.078125 "/></g></g></g><g fill="#005778" fill-opacity="1"><g transform="translate(72.127265, 60.885623)"><g><path d="M 0.34375 0.515625 C 0.46875 0.484375 0.566406 0.425781 0.640625 0.34375 C 0.722656 0.269531 0.765625 0.15625 0.765625 0 L 0.25 0 L 0.25 -0.90625 L 1.171875 -0.90625 L 1.171875 -0.125 C 1.160156 0.46875 0.90625 0.785156 0.40625 0.828125 Z M 0.34375 0.515625 "/></g></g></g><g fill="#005778" fill-opacity="1"><g transform="translate(75.449849, 60.885623)"><g/></g></g><g fill="#005778" fill-opacity="1"><g transform="translate(78.878474, 60.885623)"><g><path d="M 0.78125 -3.984375 L 0.0625 -3.984375 L 0.0625 -4.765625 L 2.5625 -4.765625 L 2.5625 -3.984375 L 1.84375 -3.984375 L 1.84375 0 L 0.78125 0 Z M 0.78125 -3.984375 "/></g></g></g><g fill="#005778" fill-opacity="1"><g transform="translate(83.420525, 60.885623)"><g><path d="M 0.359375 -4.765625 L 1.671875 -4.765625 C 2.191406 -4.765625 2.582031 -4.671875 2.84375 -4.484375 C 3.113281 -4.304688 3.25 -3.984375 3.25 -3.515625 C 3.25 -3.191406 3.207031 -2.9375 3.125 -2.75 C 3.039062 -2.5625 2.890625 -2.414062 2.671875 -2.3125 L 3.328125 0 L 2.234375 0 L 1.703125 -2.140625 L 1.40625 -2.140625 L 1.40625 0 L 0.359375 0 Z M 1.703125 -2.75 C 1.910156 -2.75 2.054688 -2.800781 2.140625 -2.90625 C 2.234375 -3.019531 2.28125 -3.191406 2.28125 -3.421875 C 2.28125 -3.628906 2.238281 -3.785156 2.15625 -3.890625 C 2.070312 -4.003906 1.9375 -4.0625 1.75 -4.0625 L 1.40625 -4.0625 L 1.40625 -2.75 Z M 1.703125 -2.75 "/></g></g></g><g fill="#005778" fill-opacity="1"><g transform="translate(88.875702, 60.885623)"><g><path d="M 1.734375 0.078125 C 1.378906 0.078125 1.097656 0.0195312 0.890625 -0.09375 C 0.679688 -0.21875 0.53125 -0.390625 0.4375 -0.609375 C 0.351562 -0.835938 0.3125 -1.128906 0.3125 -1.484375 L 0.3125 -4.765625 L 1.359375 -4.765625 L 1.359375 -1.3125 C 1.359375 -1.125 1.382812 -0.972656 1.4375 -0.859375 C 1.488281 -0.742188 1.585938 -0.6875 1.734375 -0.6875 C 1.878906 -0.6875 1.972656 -0.742188 2.015625 -0.859375 C 2.066406 -0.972656 2.09375 -1.125 2.09375 -1.3125 L 2.09375 -4.765625 L 3.140625 -4.765625 L 3.140625 -1.484375 C 3.140625 -1.128906 3.097656 -0.835938 3.015625 -0.609375 C 2.929688 -0.390625 2.785156 -0.21875 2.578125 -0.09375 C 2.367188 0.0195312 2.085938 0.078125 1.734375 0.078125 Z M 1.734375 0.078125 "/></g></g></g><g fill="#005778" fill-opacity="1"><g transform="translate(94.26018, 60.885623)"><g><path d="M 1.625 0.078125 C 1.164062 0.078125 0.820312 -0.0390625 0.59375 -0.28125 C 0.375 -0.53125 0.257812 -0.914062 0.25 -1.4375 L 1.15625 -1.578125 C 1.15625 -1.273438 1.1875 -1.054688 1.25 -0.921875 C 1.320312 -0.796875 1.425781 -0.734375 1.5625 -0.734375 C 1.738281 -0.734375 1.828125 -0.847656 1.828125 -1.078125 C 1.828125 -1.265625 1.785156 -1.421875 1.703125 -1.546875 C 1.617188 -1.679688 1.488281 -1.828125 1.3125 -1.984375 L 0.890625 -2.34375 C 0.691406 -2.519531 0.535156 -2.703125 0.421875 -2.890625 C 0.304688 -3.085938 0.25 -3.320312 0.25 -3.59375 C 0.25 -3.988281 0.367188 -4.296875 0.609375 -4.515625 C 0.847656 -4.734375 1.175781 -4.84375 1.59375 -4.84375 C 2.039062 -4.84375 2.34375 -4.707031 2.5 -4.4375 C 2.664062 -4.175781 2.757812 -3.859375 2.78125 -3.484375 L 1.875 -3.375 C 1.863281 -3.613281 1.835938 -3.785156 1.796875 -3.890625 C 1.765625 -4.003906 1.6875 -4.0625 1.5625 -4.0625 C 1.46875 -4.0625 1.394531 -4.019531 1.34375 -3.9375 C 1.289062 -3.863281 1.265625 -3.78125 1.265625 -3.6875 C 1.265625 -3.53125 1.300781 -3.394531 1.375 -3.28125 C 1.445312 -3.175781 1.566406 -3.050781 1.734375 -2.90625 L 2.125 -2.5625 C 2.363281 -2.363281 2.546875 -2.148438 2.671875 -1.921875 C 2.804688 -1.703125 2.875 -1.4375 2.875 -1.125 C 2.875 -0.90625 2.820312 -0.703125 2.71875 -0.515625 C 2.613281 -0.335938 2.460938 -0.191406 2.265625 -0.078125 C 2.078125 0.0234375 1.863281 0.078125 1.625 0.078125 Z M 1.625 0.078125 "/></g></g></g><g fill="#005778" fill-opacity="1"><g transform="translate(99.208718, 60.885623)"><g><path d="M 0.78125 -3.984375 L 0.0625 -3.984375 L 0.0625 -4.765625 L 2.5625 -4.765625 L 2.5625 -3.984375 L 1.84375 -3.984375 L 1.84375 0 L 0.78125 0 Z M 0.78125 -3.984375 "/></g></g></g><g fill="#005778" fill-opacity="1"><g transform="translate(103.750769, 60.885623)"><g><path d="M 0.359375 -4.765625 L 2.5 -4.765625 L 2.5 -4.046875 L 1.40625 -4.046875 L 1.40625 -2.875 L 2.234375 -2.875 L 2.234375 -2.140625 L 1.40625 -2.140625 L 1.40625 -0.71875 L 2.515625 -0.71875 L 2.515625 0 L 0.359375 0 Z M 0.359375 -4.765625 "/></g></g></g><g fill="#005778" fill-opacity="1"><g transform="translate(108.304603, 60.885623)"><g><path d="M 0.359375 -4.765625 L 1.5625 -4.765625 C 1.96875 -4.765625 2.285156 -4.710938 2.515625 -4.609375 C 2.753906 -4.515625 2.921875 -4.359375 3.015625 -4.140625 C 3.109375 -3.921875 3.15625 -3.628906 3.15625 -3.265625 L 3.15625 -1.53125 C 3.15625 -1.164062 3.109375 -0.867188 3.015625 -0.640625 C 2.921875 -0.421875 2.757812 -0.257812 2.53125 -0.15625 C 2.300781 -0.0507812 1.984375 0 1.578125 0 L 0.359375 0 Z M 1.578125 -0.734375 C 1.722656 -0.734375 1.832031 -0.753906 1.90625 -0.796875 C 1.976562 -0.835938 2.023438 -0.898438 2.046875 -0.984375 C 2.066406 -1.078125 2.078125 -1.203125 2.078125 -1.359375 L 2.078125 -3.453125 C 2.078125 -3.597656 2.066406 -3.710938 2.046875 -3.796875 C 2.023438 -3.878906 1.976562 -3.9375 1.90625 -3.96875 C 1.832031 -4.007812 1.71875 -4.03125 1.5625 -4.03125 L 1.40625 -4.03125 L 1.40625 -0.734375 Z M 1.578125 -0.734375 "/></g></g></g><g fill="#005778" fill-opacity="1"><g transform="translate(113.677298, 60.885623)"><g/></g></g><g fill="#005778" fill-opacity="1"><g transform="translate(117.105923, 60.885623)"><g><path d="M 1.625 0.078125 C 1.164062 0.078125 0.820312 -0.0390625 0.59375 -0.28125 C 0.375 -0.53125 0.257812 -0.914062 0.25 -1.4375 L 1.15625 -1.578125 C 1.15625 -1.273438 1.1875 -1.054688 1.25 -0.921875 C 1.320312 -0.796875 1.425781 -0.734375 1.5625 -0.734375 C 1.738281 -0.734375 1.828125 -0.847656 1.828125 -1.078125 C 1.828125 -1.265625 1.785156 -1.421875 1.703125 -1.546875 C 1.617188 -1.679688 1.488281 -1.828125 1.3125 -1.984375 L 0.890625 -2.34375 C 0.691406 -2.519531 0.535156 -2.703125 0.421875 -2.890625 C 0.304688 -3.085938 0.25 -3.320312 0.25 -3.59375 C 0.25 -3.988281 0.367188 -4.296875 0.609375 -4.515625 C 0.847656 -4.734375 1.175781 -4.84375 1.59375 -4.84375 C 2.039062 -4.84375 2.34375 -4.707031 2.5 -4.4375 C 2.664062 -4.175781 2.757812 -3.859375 2.78125 -3.484375 L 1.875 -3.375 C 1.863281 -3.613281 1.835938 -3.785156 1.796875 -3.890625 C 1.765625 -4.003906 1.6875 -4.0625 1.5625 -4.0625 C 1.46875 -4.0625 1.394531 -4.019531 1.34375 -3.9375 C 1.289062 -3.863281 1.265625 -3.78125 1.265625 -3.6875 C 1.265625 -3.53125 1.300781 -3.394531 1.375 -3.28125 C 1.445312 -3.175781 1.566406 -3.050781 1.734375 -2.90625 L 2.125 -2.5625 C 2.363281 -2.363281 2.546875 -2.148438 2.671875 -1.921875 C 2.804688 -1.703125 2.875 -1.4375 2.875 -1.125 C 2.875 -0.90625 2.820312 -0.703125 2.71875 -0.515625 C 2.613281 -0.335938 2.460938 -0.191406 2.265625 -0.078125 C 2.078125 0.0234375 1.863281 0.078125 1.625 0.078125 Z M 1.625 0.078125 "/></g></g></g><g fill="#005778" fill-opacity="1"><g transform="translate(122.054461, 60.885623)"><g><path d="M 0.359375 -4.765625 L 2.5 -4.765625 L 2.5 -4.046875 L 1.40625 -4.046875 L 1.40625 -2.875 L 2.234375 -2.875 L 2.234375 -2.140625 L 1.40625 -2.140625 L 1.40625 -0.71875 L 2.515625 -0.71875 L 2.515625 0 L 0.359375 0 Z M 0.359375 -4.765625 "/></g></g></g><g fill="#005778" fill-opacity="1"><g transform="translate(126.608295, 60.885623)"><g><path d="M 0.359375 -4.765625 L 1.671875 -4.765625 C 2.191406 -4.765625 2.582031 -4.671875 2.84375 -4.484375 C 3.113281 -4.304688 3.25 -3.984375 3.25 -3.515625 C 3.25 -3.191406 3.207031 -2.9375 3.125 -2.75 C 3.039062 -2.5625 2.890625 -2.414062 2.671875 -2.3125 L 3.328125 0 L 2.234375 0 L 1.703125 -2.140625 L 1.40625 -2.140625 L 1.40625 0 L 0.359375 0 Z M 1.703125 -2.75 C 1.910156 -2.75 2.054688 -2.800781 2.140625 -2.90625 C 2.234375 -3.019531 2.28125 -3.191406 2.28125 -3.421875 C 2.28125 -3.628906 2.238281 -3.785156 2.15625 -3.890625 C 2.070312 -4.003906 1.9375 -4.0625 1.75 -4.0625 L 1.40625 -4.0625 L 1.40625 -2.75 Z M 1.703125 -2.75 "/></g></g></g><g fill="#005778" fill-opacity="1"><g transform="translate(132.063473, 60.885623)"><g><path d="M 0.125 -4.765625 L 1.03125 -4.765625 L 1.546875 -1.53125 L 2.015625 -4.765625 L 2.96875 -4.765625 L 2.109375 0 L 0.984375 0 Z M 0.125 -4.765625 "/></g></g></g><g fill="#005778" fill-opacity="1"><g transform="translate(137.082694, 60.885623)"><g><path d="M 0.359375 -4.765625 L 1.40625 -4.765625 L 1.40625 0 L 0.359375 0 Z M 0.359375 -4.765625 "/></g></g></g><g fill="#005778" fill-opacity="1"><g transform="translate(140.776415, 60.885623)"><g><path d="M 1.71875 0.078125 C 1.195312 0.078125 0.828125 -0.0546875 0.609375 -0.328125 C 0.390625 -0.609375 0.28125 -1.003906 0.28125 -1.515625 L 0.28125 -3.234375 C 0.28125 -3.765625 0.390625 -4.164062 0.609375 -4.4375 C 0.828125 -4.707031 1.195312 -4.84375 1.71875 -4.84375 C 2.21875 -4.84375 2.570312 -4.722656 2.78125 -4.484375 C 2.988281 -4.242188 3.09375 -3.898438 3.09375 -3.453125 L 3.09375 -3.046875 L 2.0625 -3.046875 L 2.0625 -3.515625 C 2.0625 -3.703125 2.039062 -3.84375 2 -3.9375 C 1.957031 -4.039062 1.863281 -4.09375 1.71875 -4.09375 C 1.570312 -4.09375 1.472656 -4.039062 1.421875 -3.9375 C 1.378906 -3.832031 1.359375 -3.6875 1.359375 -3.5 L 1.359375 -1.265625 C 1.359375 -1.078125 1.378906 -0.929688 1.421875 -0.828125 C 1.472656 -0.722656 1.570312 -0.671875 1.71875 -0.671875 C 1.863281 -0.671875 1.957031 -0.722656 2 -0.828125 C 2.039062 -0.929688 2.0625 -1.078125 2.0625 -1.265625 L 2.0625 -1.765625 L 3.09375 -1.765625 L 3.09375 -1.34375 C 3.09375 -0.894531 2.988281 -0.546875 2.78125 -0.296875 C 2.570312 -0.046875 2.21875 0.078125 1.71875 0.078125 Z M 1.71875 0.078125 "/></g></g></g><g fill="#005778" fill-opacity="1"><g transform="translate(146.013607, 60.885623)"><g><path d="M 0.359375 -4.765625 L 2.5 -4.765625 L 2.5 -4.046875 L 1.40625 -4.046875 L 1.40625 -2.875 L 2.234375 -2.875 L 2.234375 -2.140625 L 1.40625 -2.140625 L 1.40625 -0.71875 L 2.515625 -0.71875 L 2.515625 0 L 0.359375 0 Z M 0.359375 -4.765625 "/></g></g></g></svg>